<svg width="5" height="10" viewBox="0 0 5 10" fill="none" xmlns="http://www.w3.org/2000/svg">
<path d="M-8.59011e-07 8.74475C-8.87429e-07 8.96503 0.0898195 9.15385 0.20958 9.27972C0.359281 9.43706 0.538921 9.5 0.718562 9.5C0.928143 9.5 1.10778 9.43706 1.22754 9.27972L4.79042 5.53496C4.94012 5.40909 5 5.22028 5 5C5 4.81119 4.94012 4.62238 4.79042 4.46503L1.22754 0.720279C1.10778 0.594405 0.928144 0.5 0.718563 0.499999C0.538922 0.499999 0.359281 0.594405 0.209581 0.720279C0.0898202 0.877622 -1.79898e-07 1.06643 -2.04257e-07 1.25524L-8.59011e-07 8.74475Z" fill="#303446"/>
</svg>
